<?xml version="1.0" encoding="UTF-8" standalone="no"?>
<!DOCTYPE svg PUBLIC "-//W3C//DTD SVG 1.1//EN"
 "http://www.w3.org/Graphics/SVG/1.1/DTD/svg11.dtd">
<!-- Generated by graphviz version 14.1.1 (20251213.1925)
 -->
<!-- Title: Data Pipeline Pages: 1 -->
<svg width="1285pt" height="1289pt"
 viewBox="0.00 0.00 1285.00 1289.00" xmlns="http://www.w3.org/2000/svg" xmlns:xlink="http://www.w3.org/1999/xlink">
<g id="graph0" class="graph" transform="scale(1 1) rotate(0) translate(144 1144.75)">
<title>Data Pipeline</title>
<polygon fill="white" stroke="none" points="-144,144 -144,-1144.75 1141.25,-1144.75 1141.25,144 -144,144"/>
<text xml:space="preserve" text-anchor="middle" x="498.62" y="-5.5" font-family="Sans-Serif" font-size="15.00" fill="#2d3436">Data Pipeline</text>
<g id="clust1" class="cluster">
<title>cluster_Ingestion</title>
<path fill="#e5f5fd" stroke="#aeb6be" d="M20,-401.75C20,-401.75 336.6,-401.75 336.6,-401.75 342.6,-401.75 348.6,-407.75 348.6,-413.75 348.6,-413.75 348.6,-562.75 348.6,-562.75 348.6,-568.75 342.6,-574.75 336.6,-574.75 336.6,-574.75 20,-574.75 20,-574.75 14,-574.75 8,-568.75 8,-562.75 8,-562.75 8,-413.75 8,-413.75 8,-407.75 14,-401.75 20,-401.75"/>
<text xml:space="preserve" text-anchor="middle" x="40.38" y="-559.35" font-family="Sans-Serif" font-size="12.00" fill="#2d3436">Ingestion</text>
</g>
<g id="clust2" class="cluster">
<title>cluster_Worker Processing</title>
<path fill="#e5f5fd" stroke="#aeb6be" d="M436.1,-31.75C436.1,-31.75 785.45,-31.75 785.45,-31.75 791.45,-31.75 797.45,-37.75 797.45,-43.75 797.45,-43.75 797.45,-980.75 797.45,-980.75 797.45,-986.75 791.45,-992.75 785.45,-992.75 785.45,-992.75 436.1,-992.75 436.1,-992.75 430.1,-992.75 424.1,-986.75 424.1,-980.75 424.1,-980.75 424.1,-43.75 424.1,-43.75 424.1,-37.75 430.1,-31.75 436.1,-31.75"/>
<text xml:space="preserve" text-anchor="middle" x="482.72" y="-977.35" font-family="Sans-Serif" font-size="12.00" fill="#2d3436">Worker Processing</text>
</g>
<g id="clust3" class="cluster">
<title>cluster_Extraction</title>
<path fill="#ebf3e7" stroke="#aeb6be" d="M684.65,-39.75C684.65,-39.75 777.45,-39.75 777.45,-39.75 783.45,-39.75 789.45,-45.75 789.45,-51.75 789.45,-51.75 789.45,-200.75 789.45,-200.75 789.45,-206.75 783.45,-212.75 777.45,-212.75 777.45,-212.75 684.65,-212.75 684.65,-212.75 678.65,-212.75 672.65,-206.75 672.65,-200.75 672.65,-200.75 672.65,-51.75 672.65,-51.75 672.65,-45.75 678.65,-39.75 684.65,-39.75"/>
<text xml:space="preserve" text-anchor="middle" x="707.27" y="-197.35" font-family="Sans-Serif" font-size="12.00" fill="#2d3436">Extraction</text>
</g>
<g id="clust4" class="cluster">
<title>cluster_Security</title>
<path fill="#ebf3e7" stroke="#aeb6be" d="M684.65,-220.75C684.65,-220.75 777.45,-220.75 777.45,-220.75 783.45,-220.75 789.45,-226.75 789.45,-232.75 789.45,-232.75 789.45,-381.75 789.45,-381.75 789.45,-387.75 783.45,-393.75 777.45,-393.75 777.45,-393.75 684.65,-393.75 684.65,-393.75 678.65,-393.75 672.65,-387.75 672.65,-381.75 672.65,-381.75 672.65,-232.75 672.65,-232.75 672.65,-226.75 678.65,-220.75 684.65,-220.75"/>
<text xml:space="preserve" text-anchor="middle" x="702.4" y="-378.35" font-family="Sans-Serif" font-size="12.00" fill="#2d3436">Security</text>
</g>
<g id="clust5" class="cluster">
<title>cluster_Storage</title>
<path fill="#ebf3e7" stroke="#aeb6be" d="M684.65,-401.75C684.65,-401.75 777.45,-401.75 777.45,-401.75 783.45,-401.75 789.45,-407.75 789.45,-413.75 789.45,-413.75 789.45,-951.75 789.45,-951.75 789.45,-957.75 783.45,-963.75 777.45,-963.75 777.45,-963.75 684.65,-963.75 684.65,-963.75 678.65,-963.75 672.65,-957.75 672.65,-951.75 672.65,-951.75 672.65,-413.75 672.65,-413.75 672.65,-407.75 678.65,-401.75 684.65,-401.75"/>
<text xml:space="preserve" text-anchor="middle" x="701.65" y="-948.35" font-family="Sans-Serif" font-size="12.00" fill="#2d3436">Storage</text>
</g>
<g id="clust6" class="cluster">
<title>cluster_Indexing</title>
<path fill="#e5f5fd" stroke="#aeb6be" d="M884.45,-760.75C884.45,-760.75 977.25,-760.75 977.25,-760.75 983.25,-760.75 989.25,-766.75 989.25,-772.75 989.25,-772.75 989.25,-951.75 989.25,-951.75 989.25,-957.75 983.25,-963.75 977.25,-963.75 977.25,-963.75 884.45,-963.75 884.45,-963.75 878.45,-963.75 872.45,-957.75 872.45,-951.75 872.45,-951.75 872.45,-772.75 872.45,-772.75 872.45,-766.75 878.45,-760.75 884.45,-760.75"/>
<text xml:space="preserve" text-anchor="middle" x="903.32" y="-948.35" font-family="Sans-Serif" font-size="12.00" fill="#2d3436">Indexing</text>
</g>
<!-- a736c45d19d04620b7f0d6e1d357a903 -->
<g id="node1" class="node">
<title>a736c45d19d04620b7f0d6e1d357a903</title>
<image xlink:href="/Users/jerry/miniforge3/envs/i4g/lib/python3.11/site-packages/resources/gcp/compute/run.png" width="100.8px" height="100.8px" preserveAspectRatio="xMinYMin meet" x="16" y="-528.15"/>
<text xml:space="preserve" text-anchor="middle" x="66.4" y="-410.5" font-family="Sans-Serif" font-size="13.00" fill="#2d3436">API Upload</text>
</g>
<!-- 2206286b107949289caf231aacd2626e -->
<g id="node2" class="node">
<title>2206286b107949289caf231aacd2626e</title>
<image xlink:href="/Users/jerry/miniforge3/envs/i4g/lib/python3.11/site-packages/resources/gcp/analytics/pubsub.png" width="100.8px" height="100.8px" preserveAspectRatio="xMinYMin meet" x="239.8" y="-528.15"/>
<text xml:space="preserve" text-anchor="middle" x="290.2" y="-410.5" font-family="Sans-Serif" font-size="13.00" fill="#2d3436">Processing Queue</text>
</g>
<!-- a736c45d19d04620b7f0d6e1d357a903&#45;&gt;2206286b107949289caf231aacd2626e -->
<g id="edge1" class="edge">
<title>a736c45d19d04620b7f0d6e1d357a903&#45;&gt;2206286b107949289caf231aacd2626e</title>
<path fill="none" stroke="#7b8894" d="M116.63,-477.75C116.63,-477.75 228.63,-477.75 228.63,-477.75"/>
<polygon fill="#7b8894" stroke="#7b8894" points="228.63,-481.25 238.63,-477.75 228.63,-474.25 228.63,-481.25"/>
<text xml:space="preserve" text-anchor="middle" x="178.3" y="-478.9" font-family="Sans-Serif" font-size="13.00" fill="#2d3436">1. Enqueue</text>
</g>
<!-- 396c100953644b848c1ea4f7578876cb -->
<g id="node3" class="node">
<title>396c100953644b848c1ea4f7578876cb</title>
<image xlink:href="/Users/jerry/miniforge3/envs/i4g/lib/python3.11/site-packages/resources/gcp/compute/run.png" width="100.8px" height="100.8px" preserveAspectRatio="xMinYMin meet" x="432.1" y="-528.15"/>
<text xml:space="preserve" text-anchor="middle" x="482.5" y="-410.5" font-family="Sans-Serif" font-size="13.00" fill="#2d3436">Worker Service</text>
</g>
<!-- 2206286b107949289caf231aacd2626e&#45;&gt;396c100953644b848c1ea4f7578876cb -->
<g id="edge2" class="edge">
<title>2206286b107949289caf231aacd2626e&#45;&gt;396c100953644b848c1ea4f7578876cb</title>
<path fill="none" stroke="#7b8894" d="M340.47,-477.75C340.47,-477.75 420.67,-477.75 420.67,-477.75"/>
<polygon fill="#7b8894" stroke="#7b8894" points="420.67,-481.25 430.67,-477.75 420.67,-474.25 420.67,-481.25"/>
<text xml:space="preserve" text-anchor="middle" x="386.35" y="-478.9" font-family="Sans-Serif" font-size="13.00" fill="#2d3436">2. Pull</text>
</g>
<!-- 62dbc6713119416381d6fdc016f6fa8b -->
<g id="node4" class="node">
<title>62dbc6713119416381d6fdc016f6fa8b</title>
<image xlink:href="/Users/jerry/miniforge3/envs/i4g/lib/python3.11/site-packages/resources/gcp/ml/vision-api.png" width="100.8px" height="100.8px" preserveAspectRatio="xMinYMin meet" x="680.65" y="-166.15"/>
<text xml:space="preserve" text-anchor="middle" x="731.05" y="-48.5" font-family="Sans-Serif" font-size="13.00" fill="#2d3436">Document AI</text>
</g>
<!-- 396c100953644b848c1ea4f7578876cb&#45;&gt;62dbc6713119416381d6fdc016f6fa8b -->
<g id="edge4" class="edge">
<title>396c100953644b848c1ea4f7578876cb&#45;&gt;62dbc6713119416381d6fdc016f6fa8b</title>
<path fill="none" stroke="#7b8894" d="M465.25,-409.66C465.25,-304.8 465.25,-115.75 465.25,-115.75 465.25,-115.75 669.23,-115.75 669.23,-115.75"/>
<polygon fill="#7b8894" stroke="#7b8894" points="669.23,-119.25 679.23,-115.75 669.23,-112.25 669.23,-119.25"/>
<text xml:space="preserve" text-anchor="middle" x="606.77" y="-175.9" font-family="Sans-Serif" font-size="13.00" fill="#2d3436">4. Extract Text</text>
</g>
<!-- 4ab01438e7b24798bda7c7c87bc25f76 -->
<g id="node5" class="node">
<title>4ab01438e7b24798bda7c7c87bc25f76</title>
<image xlink:href="/Users/jerry/miniforge3/envs/i4g/lib/python3.11/site-packages/resources/gcp/database/sql.png" width="100.8px" height="100.8px" preserveAspectRatio="xMinYMin meet" x="680.65" y="-347.15"/>
<text xml:space="preserve" text-anchor="middle" x="731.05" y="-229.5" font-family="Sans-Serif" font-size="13.00" fill="#2d3436">PII Vault</text>
</g>
<!-- 396c100953644b848c1ea4f7578876cb&#45;&gt;4ab01438e7b24798bda7c7c87bc25f76 -->
<g id="edge5" class="edge">
<title>396c100953644b848c1ea4f7578876cb&#45;&gt;4ab01438e7b24798bda7c7c87bc25f76</title>
<path fill="none" stroke="#7b8894" d="M499.25,-409.58C499.25,-358.27 499.25,-296.75 499.25,-296.75 499.25,-296.75 669.24,-296.75 669.24,-296.75"/>
<polygon fill="#7b8894" stroke="#7b8894" points="669.24,-300.25 679.24,-296.75 669.24,-293.25 669.24,-300.25"/>
<text xml:space="preserve" text-anchor="middle" x="606.77" y="-356.9" font-family="Sans-Serif" font-size="13.00" fill="#2d3436">5. Tokenize PII</text>
</g>
<!-- 2cef9df9c4f748b482d3cd33bbc48a5a -->
<g id="node6" class="node">
<title>2cef9df9c4f748b482d3cd33bbc48a5a</title>
<image xlink:href="/Users/jerry/miniforge3/envs/i4g/lib/python3.11/site-packages/resources/gcp/storage/storage.png" width="100.8px" height="100.8px" preserveAspectRatio="xMinYMin meet" x="680.65" y="-528.15"/>
<text xml:space="preserve" text-anchor="middle" x="731.05" y="-410.5" font-family="Sans-Serif" font-size="13.00" fill="#2d3436">Raw Evidence</text>
</g>
<!-- 396c100953644b848c1ea4f7578876cb&#45;&gt;2cef9df9c4f748b482d3cd33bbc48a5a -->
<g id="edge3" class="edge">
<title>396c100953644b848c1ea4f7578876cb&#45;&gt;2cef9df9c4f748b482d3cd33bbc48a5a</title>
<path fill="none" stroke="#7b8894" d="M532.8,-477.75C532.8,-477.75 669.31,-477.75 669.31,-477.75"/>
<polygon fill="#7b8894" stroke="#7b8894" points="669.31,-481.25 679.31,-477.75 669.31,-474.25 669.31,-481.25"/>
<text xml:space="preserve" text-anchor="middle" x="606.77" y="-478.9" font-family="Sans-Serif" font-size="13.00" fill="#2d3436">3. Store Raw</text>
</g>
<!-- 1e0ee663a2e44fd899bdb11262e5cd4d -->
<g id="node7" class="node">
<title>1e0ee663a2e44fd899bdb11262e5cd4d</title>
<image xlink:href="/Users/jerry/miniforge3/envs/i4g/lib/python3.11/site-packages/resources/gcp/storage/storage.png" width="100.8px" height="100.8px" preserveAspectRatio="xMinYMin meet" x="680.65" y="-708.15"/>
<text xml:space="preserve" text-anchor="middle" x="731.05" y="-590.5" font-family="Sans-Serif" font-size="13.00" fill="#2d3436">Redacted Evidence</text>
</g>
<!-- 396c100953644b848c1ea4f7578876cb&#45;&gt;1e0ee663a2e44fd899bdb11262e5cd4d -->
<g id="edge6" class="edge">
<title>396c100953644b848c1ea4f7578876cb&#45;&gt;1e0ee663a2e44fd899bdb11262e5cd4d</title>
<path fill="none" stroke="#7b8894" d="M499.25,-546.06C499.25,-596.98 499.25,-657.75 499.25,-657.75 499.25,-657.75 669.24,-657.75 669.24,-657.75"/>
<polygon fill="#7b8894" stroke="#7b8894" points="669.24,-661.25 679.24,-657.75 669.24,-654.25 669.24,-661.25"/>
<text xml:space="preserve" text-anchor="middle" x="606.77" y="-599.9" font-family="Sans-Serif" font-size="13.00" fill="#2d3436">6. Store Clean</text>
</g>
<!-- bef20156d1134393ad6962e51fd7ec3e -->
<g id="node8" class="node">
<title>bef20156d1134393ad6962e51fd7ec3e</title>
<image xlink:href="/Users/jerry/miniforge3/envs/i4g/lib/python3.11/site-packages/resources/gcp/database/sql.png" width="100.8px" height="100.8px" preserveAspectRatio="xMinYMin meet" x="680.65" y="-902.15"/>
<text xml:space="preserve" text-anchor="middle" x="731.05" y="-783.6" font-family="Sans-Serif" font-size="13.00" fill="#2d3436">Case</text>
<text xml:space="preserve" text-anchor="middle" x="731.05" y="-770.1" font-family="Sans-Serif" font-size="13.00" fill="#2d3436">Metadata</text>
</g>
<!-- 396c100953644b848c1ea4f7578876cb&#45;&gt;bef20156d1134393ad6962e51fd7ec3e -->
<g id="edge7" class="edge">
<title>396c100953644b848c1ea4f7578876cb&#45;&gt;bef20156d1134393ad6962e51fd7ec3e</title>
<path fill="none" stroke="#7b8894" d="M465.25,-545.91C465.25,-653.79 465.25,-851.75 465.25,-851.75 465.25,-851.75 669.23,-851.75 669.23,-851.75"/>
<polygon fill="#7b8894" stroke="#7b8894" points="669.23,-855.25 679.23,-851.75 669.23,-848.25 669.23,-855.25"/>
<text xml:space="preserve" text-anchor="middle" x="606.77" y="-756.9" font-family="Sans-Serif" font-size="13.00" fill="#2d3436">7. Update Case</text>
</g>
<!-- 93eefd69f71a4305af4c8b8fb5d3bcb6 -->
<g id="node9" class="node">
<title>93eefd69f71a4305af4c8b8fb5d3bcb6</title>
<image xlink:href="/Users/jerry/miniforge3/envs/i4g/lib/python3.11/site-packages/resources/gcp/ml/ai-platform.png" width="100.8px" height="100.8px" preserveAspectRatio="xMinYMin meet" x="880.45" y="-902.15"/>
<text xml:space="preserve" text-anchor="middle" x="930.85" y="-783.6" font-family="Sans-Serif" font-size="13.00" fill="#2d3436">Vertex AI</text>
<text xml:space="preserve" text-anchor="middle" x="930.85" y="-770.1" font-family="Sans-Serif" font-size="13.00" fill="#2d3436">Vector Search</text>
</g>
<!-- bef20156d1134393ad6962e51fd7ec3e&#45;&gt;93eefd69f71a4305af4c8b8fb5d3bcb6 -->
<g id="edge8" class="edge">
<title>bef20156d1134393ad6962e51fd7ec3e&#45;&gt;93eefd69f71a4305af4c8b8fb5d3bcb6</title>
<path fill="none" stroke="#7b8894" stroke-dasharray="5,2" d="M781.21,-851.75C781.21,-851.75 869.16,-851.75 869.16,-851.75"/>
<polygon fill="#7b8894" stroke="#7b8894" points="869.16,-855.25 879.16,-851.75 869.16,-848.25 869.16,-855.25"/>
<text xml:space="preserve" text-anchor="middle" x="830.95" y="-852.9" font-family="Sans-Serif" font-size="13.00" fill="#2d3436">8. Sync</text>
</g>
</g>
</svg>
