<?xml version="1.0" encoding="UTF-8" standalone="no"?>
<!DOCTYPE svg PUBLIC "-//W3C//DTD SVG 1.1//EN"
 "http://www.w3.org/Graphics/SVG/1.1/DTD/svg11.dtd">
<!-- Generated by graphviz version 14.1.1 (20251213.1925)
 -->
<!-- Title: Security Model Pages: 1 -->
<svg width="708pt" height="1872pt"
 viewBox="0.00 0.00 708.00 1872.00" xmlns="http://www.w3.org/2000/svg" xmlns:xlink="http://www.w3.org/1999/xlink">
<g id="graph0" class="graph" transform="scale(1 1) rotate(0) translate(144 1727.55)">
<title>Security Model</title>
<polygon fill="white" stroke="none" points="-144,144 -144,-1727.55 564,-1727.55 564,144 -144,144"/>
<text xml:space="preserve" text-anchor="middle" x="210" y="-5.5" font-family="Sans-Serif" font-size="15.00" fill="#2d3436">Security Model</text>
<g id="clust1" class="cluster">
<title>cluster_Principals</title>
<path fill="#e5f5fd" stroke="#aeb6be" d="M20,-1402C20,-1402 400,-1402 400,-1402 406,-1402 412,-1408 412,-1414 412,-1414 412,-1563.55 412,-1563.55 412,-1569.55 406,-1575.55 400,-1575.55 400,-1575.55 20,-1575.55 20,-1575.55 14,-1575.55 8,-1569.55 8,-1563.55 8,-1563.55 8,-1414 8,-1414 8,-1408 14,-1402 20,-1402"/>
<text xml:space="preserve" text-anchor="middle" x="42.62" y="-1560.15" font-family="Sans-Serif" font-size="12.00" fill="#2d3436">Principals</text>
</g>
<g id="clust2" class="cluster">
<title>cluster_Identity &amp; Access</title>
<path fill="#e5f5fd" stroke="#aeb6be" d="M88,-954.85C88,-954.85 227,-954.85 227,-954.85 233,-954.85 239,-960.85 239,-966.85 239,-966.85 239,-1349.5 239,-1349.5 239,-1355.5 233,-1361.5 227,-1361.5 227,-1361.5 88,-1361.5 88,-1361.5 82,-1361.5 76,-1355.5 76,-1349.5 76,-1349.5 76,-966.85 76,-966.85 76,-960.85 82,-954.85 88,-954.85"/>
<text xml:space="preserve" text-anchor="middle" x="129.38" y="-1346.1" font-family="Sans-Serif" font-size="12.00" fill="#2d3436">Identity &amp; Access</text>
</g>
<g id="clust3" class="cluster">
<title>cluster_Service Layer</title>
<path fill="#e5f5fd" stroke="#aeb6be" d="M88,-478.9C88,-478.9 267,-478.9 267,-478.9 273,-478.9 279,-484.9 279,-490.9 279,-490.9 279,-902.35 279,-902.35 279,-908.35 273,-914.35 267,-914.35 267,-914.35 88,-914.35 88,-914.35 82,-914.35 76,-908.35 76,-902.35 76,-902.35 76,-490.9 76,-490.9 76,-484.9 82,-478.9 88,-478.9"/>
<text xml:space="preserve" text-anchor="middle" x="120.75" y="-898.95" font-family="Sans-Serif" font-size="12.00" fill="#2d3436">Service Layer</text>
</g>
<g id="clust4" class="cluster">
<title>cluster_Data Protection</title>
<path fill="#e5f5fd" stroke="#aeb6be" d="M88,-31.75C88,-31.75 205,-31.75 205,-31.75 211,-31.75 217,-37.75 217,-43.75 217,-43.75 217,-426.4 217,-426.4 217,-432.4 211,-438.4 205,-438.4 205,-438.4 88,-438.4 88,-438.4 82,-438.4 76,-432.4 76,-426.4 76,-426.4 76,-43.75 76,-43.75 76,-37.75 82,-31.75 88,-31.75"/>
<text xml:space="preserve" text-anchor="middle" x="125.25" y="-423" font-family="Sans-Serif" font-size="12.00" fill="#2d3436">Data Protection</text>
</g>
<!-- c41f48e65e6d40cbb04885fa2132db4c -->
<g id="node1" class="node">
<title>c41f48e65e6d40cbb04885fa2132db4c</title>
<image xlink:href="/Users/jerry/miniforge3/envs/i4g/lib/python3.11/site-packages/resources/onprem/client/user.png" width="100.8px" height="100.8px" preserveAspectRatio="xMinYMin meet" x="15.6" y="-1528.8"/>
<text xml:space="preserve" text-anchor="middle" x="66" y="-1411.15" font-family="Sans-Serif" font-size="13.00" fill="#2d3436">Victim</text>
</g>
<!-- bbbf990572ef474bad4d61f49b2a4c40 -->
<g id="node4" class="node">
<title>bbbf990572ef474bad4d61f49b2a4c40</title>
<image xlink:href="/Users/jerry/miniforge3/envs/i4g/lib/python3.11/site-packages/resources/gcp/network/load-balancing.png" width="100.8px" height="100.8px" preserveAspectRatio="xMinYMin meet" x="83.6" y="-1314.75"/>
<text xml:space="preserve" text-anchor="middle" x="134" y="-1197.1" font-family="Sans-Serif" font-size="13.00" fill="#2d3436">Global LB</text>
</g>
<!-- c41f48e65e6d40cbb04885fa2132db4c&#45;&gt;bbbf990572ef474bad4d61f49b2a4c40 -->
<g id="edge1" class="edge">
<title>c41f48e65e6d40cbb04885fa2132db4c&#45;&gt;bbbf990572ef474bad4d61f49b2a4c40</title>
<path fill="none" stroke="#7b8894" d="M100,-1410.08C100,-1410.08 100,-1343.9 100,-1343.9"/>
<polygon fill="#7b8894" stroke="#7b8894" points="103.5,-1343.9 100,-1333.9 96.5,-1343.9 103.5,-1343.9"/>
<text xml:space="preserve" text-anchor="middle" x="113.62" y="-1370.65" font-family="Sans-Serif" font-size="13.00" fill="#2d3436">1. HTTPS Request</text>
</g>
<!-- e0b99afa9da748c7b2cc828f6b6e675e -->
<g id="node2" class="node">
<title>e0b99afa9da748c7b2cc828f6b6e675e</title>
<image xlink:href="/Users/jerry/miniforge3/envs/i4g/lib/python3.11/site-packages/resources/onprem/client/users.png" width="100.8px" height="100.8px" preserveAspectRatio="xMinYMin meet" x="159.6" y="-1528.8"/>
<text xml:space="preserve" text-anchor="middle" x="210" y="-1411.15" font-family="Sans-Serif" font-size="13.00" fill="#2d3436">Analyst</text>
</g>
<!-- e0b99afa9da748c7b2cc828f6b6e675e&#45;&gt;bbbf990572ef474bad4d61f49b2a4c40 -->
<g id="edge2" class="edge">
<title>e0b99afa9da748c7b2cc828f6b6e675e&#45;&gt;bbbf990572ef474bad4d61f49b2a4c40</title>
<path fill="none" stroke="#7b8894" d="M172,-1410.08C172,-1410.08 172,-1343.9 172,-1343.9"/>
<polygon fill="#7b8894" stroke="#7b8894" points="175.5,-1343.9 172,-1333.9 168.5,-1343.9 175.5,-1343.9"/>
<text xml:space="preserve" text-anchor="middle" x="274.62" y="-1370.65" font-family="Sans-Serif" font-size="13.00" fill="#2d3436">1. HTTPS Request</text>
</g>
<!-- 24d0c89bb6b7447fba6afd531fc4d403 -->
<g id="node3" class="node">
<title>24d0c89bb6b7447fba6afd531fc4d403</title>
<image xlink:href="/Users/jerry/miniforge3/envs/i4g/lib/python3.11/site-packages/resources/onprem/client/users.png" width="100.8px" height="100.8px" preserveAspectRatio="xMinYMin meet" x="303.6" y="-1528.8"/>
<text xml:space="preserve" text-anchor="middle" x="354" y="-1411.15" font-family="Sans-Serif" font-size="13.00" fill="#2d3436">Admin</text>
</g>
<!-- bbc1a6a59e354dc8bf9e5893a44ce0dc -->
<g id="node5" class="node">
<title>bbc1a6a59e354dc8bf9e5893a44ce0dc</title>
<image xlink:href="/Users/jerry/miniforge3/envs/i4g/lib/python3.11/site-packages/resources/gcp/security/iam.png" width="100.8px" height="100.8px" preserveAspectRatio="xMinYMin meet" x="83.6" y="-1096.05"/>
<text xml:space="preserve" text-anchor="middle" x="134" y="-977.5" font-family="Sans-Serif" font-size="13.00" fill="#2d3436">Identity&#45;Aware Proxy</text>
<text xml:space="preserve" text-anchor="middle" x="134" y="-964" font-family="Sans-Serif" font-size="13.00" fill="#2d3436">(IAP)</text>
</g>
<!-- bbbf990572ef474bad4d61f49b2a4c40&#45;&gt;bbc1a6a59e354dc8bf9e5893a44ce0dc -->
<g id="edge3" class="edge">
<title>bbbf990572ef474bad4d61f49b2a4c40&#45;&gt;bbc1a6a59e354dc8bf9e5893a44ce0dc</title>
<path fill="none" stroke="#7b8894" d="M134,-1196.05C134,-1196.05 134,-1139.92 134,-1139.92"/>
<polygon fill="#7b8894" stroke="#7b8894" points="137.5,-1139.92 134,-1129.92 130.5,-1139.92 137.5,-1139.92"/>
<text xml:space="preserve" text-anchor="middle" x="179.12" y="-1156.6" font-family="Sans-Serif" font-size="13.00" fill="#2d3436">2. Google Sign&#45;In</text>
</g>
<!-- 76a5a81de87a49749d8a373be5b11a23 -->
<g id="node6" class="node">
<title>76a5a81de87a49749d8a373be5b11a23</title>
<image xlink:href="/Users/jerry/miniforge3/envs/i4g/lib/python3.11/site-packages/resources/gcp/compute/run.png" width="100.8px" height="100.8px" preserveAspectRatio="xMinYMin meet" x="83.6" y="-853.2"/>
<text xml:space="preserve" text-anchor="middle" x="134" y="-734.65" font-family="Sans-Serif" font-size="13.00" fill="#2d3436">UI Console</text>
<text xml:space="preserve" text-anchor="middle" x="134" y="-721.15" font-family="Sans-Serif" font-size="13.00" fill="#2d3436">(Next.js)</text>
</g>
<!-- bbc1a6a59e354dc8bf9e5893a44ce0dc&#45;&gt;76a5a81de87a49749d8a373be5b11a23 -->
<g id="edge4" class="edge">
<title>bbc1a6a59e354dc8bf9e5893a44ce0dc&#45;&gt;76a5a81de87a49749d8a373be5b11a23</title>
<path fill="none" stroke="#7b8894" d="M134,-963.09C134,-963.09 134,-897.05 134,-897.05"/>
<polygon fill="#7b8894" stroke="#7b8894" points="137.5,-897.05 134,-887.05 130.5,-897.05 137.5,-897.05"/>
<text xml:space="preserve" text-anchor="middle" x="243.12" y="-923.5" font-family="Sans-Serif" font-size="13.00" fill="#2d3436">3. X&#45;Goog&#45;Authenticated&#45;User&#45;Email</text>
</g>
<!-- cd4894bed43e4a289f0dbbd15a0d225d -->
<g id="node7" class="node">
<title>cd4894bed43e4a289f0dbbd15a0d225d</title>
<image xlink:href="/Users/jerry/miniforge3/envs/i4g/lib/python3.11/site-packages/resources/gcp/compute/run.png" width="100.8px" height="100.8px" preserveAspectRatio="xMinYMin meet" x="83.6" y="-620.1"/>
<text xml:space="preserve" text-anchor="middle" x="134" y="-501.55" font-family="Sans-Serif" font-size="13.00" fill="#2d3436">Core API</text>
<text xml:space="preserve" text-anchor="middle" x="134" y="-488.05" font-family="Sans-Serif" font-size="13.00" fill="#2d3436">(FastAPI)</text>
</g>
<!-- 76a5a81de87a49749d8a373be5b11a23&#45;&gt;cd4894bed43e4a289f0dbbd15a0d225d -->
<g id="edge5" class="edge">
<title>76a5a81de87a49749d8a373be5b11a23&#45;&gt;cd4894bed43e4a289f0dbbd15a0d225d</title>
<path fill="none" stroke="#7b8894" d="M134,-720.29C134,-720.29 134,-664.01 134,-664.01"/>
<polygon fill="#7b8894" stroke="#7b8894" points="137.5,-664.01 134,-654.01 130.5,-664.01 137.5,-664.01"/>
<text xml:space="preserve" text-anchor="middle" x="199" y="-680.65" font-family="Sans-Serif" font-size="13.00" fill="#2d3436">4. API Call + X&#45;API&#45;KEY</text>
</g>
<!-- d9723e401feb44d79c80d93954641dc8 -->
<g id="node8" class="node">
<title>d9723e401feb44d79c80d93954641dc8</title>
<image xlink:href="/Users/jerry/miniforge3/envs/i4g/lib/python3.11/site-packages/resources/gcp/security/key-management-service.png" width="100.8px" height="100.8px" preserveAspectRatio="xMinYMin meet" x="83.6" y="-391.65"/>
<text xml:space="preserve" text-anchor="middle" x="134" y="-274" font-family="Sans-Serif" font-size="13.00" fill="#2d3436">Cloud KMS</text>
</g>
<!-- cd4894bed43e4a289f0dbbd15a0d225d&#45;&gt;d9723e401feb44d79c80d93954641dc8 -->
<g id="edge6" class="edge">
<title>cd4894bed43e4a289f0dbbd15a0d225d&#45;&gt;d9723e401feb44d79c80d93954641dc8</title>
<path fill="none" stroke="#7b8894" d="M134,-486.9C134,-486.9 134,-421.02 134,-421.02"/>
<polygon fill="#7b8894" stroke="#7b8894" points="137.5,-421.02 134,-411.02 130.5,-421.02 137.5,-421.02"/>
<text xml:space="preserve" text-anchor="middle" x="174.88" y="-447.55" font-family="Sans-Serif" font-size="13.00" fill="#2d3436">5. Decrypt PII</text>
</g>
<!-- bdd8354e88374c80b51287992651e7ad -->
<g id="node9" class="node">
<title>bdd8354e88374c80b51287992651e7ad</title>
<image xlink:href="/Users/jerry/miniforge3/envs/i4g/lib/python3.11/site-packages/resources/gcp/database/sql.png" width="100.8px" height="100.8px" preserveAspectRatio="xMinYMin meet" x="83.6" y="-172.95"/>
<text xml:space="preserve" text-anchor="middle" x="134" y="-54.4" font-family="Sans-Serif" font-size="13.00" fill="#2d3436">PII Vault</text>
<text xml:space="preserve" text-anchor="middle" x="134" y="-40.9" font-family="Sans-Serif" font-size="13.00" fill="#2d3436">(Isolated Project)</text>
</g>
<!-- d9723e401feb44d79c80d93954641dc8&#45;&gt;bdd8354e88374c80b51287992651e7ad -->
<g id="edge7" class="edge">
<title>d9723e401feb44d79c80d93954641dc8&#45;&gt;bdd8354e88374c80b51287992651e7ad</title>
<path fill="none" stroke="#7b8894" d="M134,-272.95C134,-272.95 134,-216.82 134,-216.82"/>
<polygon fill="#7b8894" stroke="#7b8894" points="137.5,-216.82 134,-206.82 130.5,-216.82 137.5,-216.82"/>
<text xml:space="preserve" text-anchor="middle" x="167.88" y="-233.5" font-family="Sans-Serif" font-size="13.00" fill="#2d3436">6. Read/Write</text>
</g>
</g>
</svg>
