<?xml version="1.0" encoding="UTF-8" standalone="no"?>
<!DOCTYPE svg PUBLIC "-//W3C//DTD SVG 1.1//EN"
 "http://www.w3.org/Graphics/SVG/1.1/DTD/svg11.dtd">
<!-- Generated by graphviz version 14.1.1 (20251213.1925)
 -->
<!-- Title: System Topology Pages: 1 -->
<svg width="1081pt" height="1617pt"
 viewBox="0.00 0.00 1081.00 1617.00" xmlns="http://www.w3.org/2000/svg" xmlns:xlink="http://www.w3.org/1999/xlink">
<g id="graph0" class="graph" transform="scale(1 1) rotate(0) translate(144 1472.75)">
<title>System Topology</title>
<polygon fill="white" stroke="none" points="-144,144 -144,-1472.75 937,-1472.75 937,144 -144,144"/>
<text xml:space="preserve" text-anchor="middle" x="396.5" y="-5.5" font-family="Sans-Serif" font-size="15.00" fill="#2d3436">System Topology</text>
<g id="clust1" class="cluster">
<title>cluster_External Users</title>
<path fill="#e5f5fd" stroke="#aeb6be" d="M20,-326.75C20,-326.75 112.8,-326.75 112.8,-326.75 118.8,-326.75 124.8,-332.75 124.8,-338.75 124.8,-338.75 124.8,-726.75 124.8,-726.75 124.8,-732.75 118.8,-738.75 112.8,-738.75 112.8,-738.75 20,-738.75 20,-738.75 14,-738.75 8,-732.75 8,-726.75 8,-726.75 8,-338.75 8,-338.75 8,-332.75 14,-326.75 20,-326.75"/>
<text xml:space="preserve" text-anchor="middle" x="55.38" y="-723.35" font-family="Sans-Serif" font-size="12.00" fill="#2d3436">External Users</text>
</g>
<g id="clust2" class="cluster">
<title>cluster_GCP Project (i4g&#45;prod)</title>
<path fill="#e5f5fd" stroke="#aeb6be" d="M167.8,-242.75C167.8,-242.75 773,-242.75 773,-242.75 779,-242.75 785,-248.75 785,-254.75 785,-254.75 785,-1308.75 785,-1308.75 785,-1314.75 779,-1320.75 773,-1320.75 773,-1320.75 167.8,-1320.75 167.8,-1320.75 161.8,-1320.75 155.8,-1314.75 155.8,-1308.75 155.8,-1308.75 155.8,-254.75 155.8,-254.75 155.8,-248.75 161.8,-242.75 167.8,-242.75"/>
<text xml:space="preserve" text-anchor="middle" x="224.55" y="-1305.35" font-family="Sans-Serif" font-size="12.00" fill="#2d3436">GCP Project (i4g&#45;prod)</text>
</g>
<g id="clust3" class="cluster">
<title>cluster_Ingress &amp; Auth</title>
<path fill="#ebf3e7" stroke="#aeb6be" d="M175.8,-257.75C175.8,-257.75 268.6,-257.75 268.6,-257.75 274.6,-257.75 280.6,-263.75 280.6,-269.75 280.6,-269.75 280.6,-627.75 280.6,-627.75 280.6,-633.75 274.6,-639.75 268.6,-639.75 268.6,-639.75 175.8,-639.75 175.8,-639.75 169.8,-639.75 163.8,-633.75 163.8,-627.75 163.8,-627.75 163.8,-269.75 163.8,-269.75 163.8,-263.75 169.8,-257.75 175.8,-257.75"/>
<text xml:space="preserve" text-anchor="middle" x="210.42" y="-624.35" font-family="Sans-Serif" font-size="12.00" fill="#2d3436">Ingress &amp; Auth</text>
</g>
<g id="clust4" class="cluster">
<title>cluster_Compute (Cloud Run)</title>
<path fill="#ebf3e7" stroke="#aeb6be" d="M331.6,-451.75C331.6,-451.75 609.2,-451.75 609.2,-451.75 615.2,-451.75 621.2,-457.75 621.2,-463.75 621.2,-463.75 621.2,-851.75 621.2,-851.75 621.2,-857.75 615.2,-863.75 609.2,-863.75 609.2,-863.75 331.6,-863.75 331.6,-863.75 325.6,-863.75 319.6,-857.75 319.6,-851.75 319.6,-851.75 319.6,-463.75 319.6,-463.75 319.6,-457.75 325.6,-451.75 331.6,-451.75"/>
<text xml:space="preserve" text-anchor="middle" x="386.1" y="-848.35" font-family="Sans-Serif" font-size="12.00" fill="#2d3436">Compute (Cloud Run)</text>
</g>
<g id="clust5" class="cluster">
<title>cluster_Data &amp; Storage</title>
<path fill="#ebf3e7" stroke="#aeb6be" d="M672.2,-250.75C672.2,-250.75 765,-250.75 765,-250.75 771,-250.75 777,-256.75 777,-262.75 777,-262.75 777,-859.75 777,-859.75 777,-865.75 771,-871.75 765,-871.75 765,-871.75 672.2,-871.75 672.2,-871.75 666.2,-871.75 660.2,-865.75 660.2,-859.75 660.2,-859.75 660.2,-262.75 660.2,-262.75 660.2,-256.75 666.2,-250.75 672.2,-250.75"/>
<text xml:space="preserve" text-anchor="middle" x="709.07" y="-856.35" font-family="Sans-Serif" font-size="12.00" fill="#2d3436">Data &amp; Storage</text>
</g>
<g id="clust6" class="cluster">
<title>cluster_AI &amp; Processing</title>
<path fill="#ebf3e7" stroke="#aeb6be" d="M672.2,-879.75C672.2,-879.75 765,-879.75 765,-879.75 771,-879.75 777,-885.75 777,-891.75 777,-891.75 777,-1279.75 777,-1279.75 777,-1285.75 771,-1291.75 765,-1291.75 765,-1291.75 672.2,-1291.75 672.2,-1291.75 666.2,-1291.75 660.2,-1285.75 660.2,-1279.75 660.2,-1279.75 660.2,-891.75 660.2,-891.75 660.2,-885.75 666.2,-879.75 672.2,-879.75"/>
<text xml:space="preserve" text-anchor="middle" x="710.95" y="-1276.35" font-family="Sans-Serif" font-size="12.00" fill="#2d3436">AI &amp; Processing</text>
</g>
<g id="clust7" class="cluster">
<title>cluster_Async / Event Bus</title>
<path fill="#ebf3e7" stroke="#aeb6be" d="M175.8,-647.75C175.8,-647.75 268.6,-647.75 268.6,-647.75 274.6,-647.75 280.6,-653.75 280.6,-659.75 280.6,-659.75 280.6,-988.75 280.6,-988.75 280.6,-994.75 274.6,-1000.75 268.6,-1000.75 268.6,-1000.75 175.8,-1000.75 175.8,-1000.75 169.8,-1000.75 163.8,-994.75 163.8,-988.75 163.8,-988.75 163.8,-659.75 163.8,-659.75 163.8,-653.75 169.8,-647.75 175.8,-647.75"/>
<text xml:space="preserve" text-anchor="middle" x="220.17" y="-985.35" font-family="Sans-Serif" font-size="12.00" fill="#2d3436">Async / Event Bus</text>
</g>
<g id="clust8" class="cluster">
<title>cluster_Legacy / External</title>
<path fill="#e5f5fd" stroke="#aeb6be" d="M516.4,-31.75C516.4,-31.75 609.2,-31.75 609.2,-31.75 615.2,-31.75 621.2,-37.75 621.2,-43.75 621.2,-43.75 621.2,-222.75 621.2,-222.75 621.2,-228.75 615.2,-234.75 609.2,-234.75 609.2,-234.75 516.4,-234.75 516.4,-234.75 510.4,-234.75 504.4,-228.75 504.4,-222.75 504.4,-222.75 504.4,-43.75 504.4,-43.75 504.4,-37.75 510.4,-31.75 516.4,-31.75"/>
<text xml:space="preserve" text-anchor="middle" x="558.52" y="-219.35" font-family="Sans-Serif" font-size="12.00" fill="#2d3436">Legacy / External</text>
</g>
<!-- 6aec08731e3a4d7291ad7ad4ce75a173 -->
<g id="node1" class="node">
<title>6aec08731e3a4d7291ad7ad4ce75a173</title>
<image xlink:href="/Users/jerry/miniforge3/envs/i4g/lib/python3.11/site-packages/resources/onprem/client/user.png" width="100.8px" height="100.8px" preserveAspectRatio="xMinYMin meet" x="16" y="-677.15"/>
<text xml:space="preserve" text-anchor="middle" x="66.4" y="-558.6" font-family="Sans-Serif" font-size="13.00" fill="#2d3436">Victim</text>
<text xml:space="preserve" text-anchor="middle" x="66.4" y="-545.1" font-family="Sans-Serif" font-size="13.00" fill="#2d3436">(Intake Form)</text>
</g>
<!-- f88780eb3e5942efb7fa4c0250658be8 -->
<g id="node3" class="node">
<title>f88780eb3e5942efb7fa4c0250658be8</title>
<image xlink:href="/Users/jerry/miniforge3/envs/i4g/lib/python3.11/site-packages/resources/gcp/network/load-balancing.png" width="100.8px" height="100.8px" preserveAspectRatio="xMinYMin meet" x="171.8" y="-593.15"/>
<text xml:space="preserve" text-anchor="middle" x="222.2" y="-475.5" font-family="Sans-Serif" font-size="13.00" fill="#2d3436">Global LB</text>
</g>
<!-- 6aec08731e3a4d7291ad7ad4ce75a173&#45;&gt;f88780eb3e5942efb7fa4c0250658be8 -->
<g id="edge1" class="edge">
<title>6aec08731e3a4d7291ad7ad4ce75a173&#45;&gt;f88780eb3e5942efb7fa4c0250658be8</title>
<path fill="none" stroke="#7b8894" d="M116.55,-577.55C116.55,-577.55 160.36,-577.55 160.36,-577.55"/>
<polygon fill="#7b8894" stroke="#7b8894" points="160.36,-581.05 170.36,-577.55 160.36,-574.05 160.36,-581.05"/>
</g>
<!-- 58f334f8228e4a0a92eea6ad68f44285 -->
<g id="node2" class="node">
<title>58f334f8228e4a0a92eea6ad68f44285</title>
<image xlink:href="/Users/jerry/miniforge3/envs/i4g/lib/python3.11/site-packages/resources/onprem/client/users.png" width="100.8px" height="100.8px" preserveAspectRatio="xMinYMin meet" x="16" y="-468.15"/>
<text xml:space="preserve" text-anchor="middle" x="66.4" y="-349.6" font-family="Sans-Serif" font-size="13.00" fill="#2d3436">Analysts</text>
<text xml:space="preserve" text-anchor="middle" x="66.4" y="-336.1" font-family="Sans-Serif" font-size="13.00" fill="#2d3436">(Console)</text>
</g>
<!-- 58f334f8228e4a0a92eea6ad68f44285&#45;&gt;f88780eb3e5942efb7fa4c0250658be8 -->
<g id="edge3" class="edge">
<title>58f334f8228e4a0a92eea6ad68f44285&#45;&gt;f88780eb3e5942efb7fa4c0250658be8</title>
<path fill="none" stroke="#7b8894" d="M116.55,-487.45C116.55,-487.45 160.36,-487.45 160.36,-487.45"/>
<polygon fill="#7b8894" stroke="#7b8894" points="160.36,-490.95 170.36,-487.45 160.36,-483.95 160.36,-490.95"/>
</g>
<!-- b8cf173bfe224dbcb116c3bc11b93aa4 -->
<g id="node7" class="node">
<title>b8cf173bfe224dbcb116c3bc11b93aa4</title>
<image xlink:href="/Users/jerry/miniforge3/envs/i4g/lib/python3.11/site-packages/resources/gcp/compute/run.png" width="100.8px" height="100.8px" preserveAspectRatio="xMinYMin meet" x="327.6" y="-593.15"/>
<text xml:space="preserve" text-anchor="middle" x="378" y="-474.6" font-family="Sans-Serif" font-size="13.00" fill="#2d3436">UI Console</text>
<text xml:space="preserve" text-anchor="middle" x="378" y="-461.1" font-family="Sans-Serif" font-size="13.00" fill="#2d3436">(Next.js)</text>
</g>
<!-- f88780eb3e5942efb7fa4c0250658be8&#45;&gt;b8cf173bfe224dbcb116c3bc11b93aa4 -->
<g id="edge2" class="edge">
<title>f88780eb3e5942efb7fa4c0250658be8&#45;&gt;b8cf173bfe224dbcb116c3bc11b93aa4</title>
<path fill="none" stroke="#7b8894" d="M272.35,-519.95C272.35,-519.95 316.16,-519.95 316.16,-519.95"/>
<polygon fill="#7b8894" stroke="#7b8894" points="316.16,-523.45 326.16,-519.95 316.16,-516.45 316.16,-523.45"/>
</g>
<!-- f88780eb3e5942efb7fa4c0250658be8&#45;&gt;b8cf173bfe224dbcb116c3bc11b93aa4 -->
<g id="edge4" class="edge">
<title>f88780eb3e5942efb7fa4c0250658be8&#45;&gt;b8cf173bfe224dbcb116c3bc11b93aa4</title>
<path fill="none" stroke="#7b8894" d="M272.35,-565.55C272.35,-565.55 316.16,-565.55 316.16,-565.55"/>
<polygon fill="#7b8894" stroke="#7b8894" points="316.16,-569.05 326.16,-565.55 316.16,-562.05 316.16,-569.05"/>
</g>
<!-- 1d4f309dba97462a8341e2f675a56827 -->
<g id="node4" class="node">
<title>1d4f309dba97462a8341e2f675a56827</title>
<image xlink:href="/Users/jerry/miniforge3/envs/i4g/lib/python3.11/site-packages/resources/gcp/security/iam.png" width="100.8px" height="100.8px" preserveAspectRatio="xMinYMin meet" x="171.8" y="-399.15"/>
<text xml:space="preserve" text-anchor="middle" x="222.2" y="-280.6" font-family="Sans-Serif" font-size="13.00" fill="#2d3436">IAP</text>
<text xml:space="preserve" text-anchor="middle" x="222.2" y="-267.1" font-family="Sans-Serif" font-size="13.00" fill="#2d3436">(Google Sign&#45;In)</text>
</g>
<!-- 3d7374c7cb564d43996a3fce7f7735f9 -->
<g id="node5" class="node">
<title>3d7374c7cb564d43996a3fce7f7735f9</title>
<image xlink:href="/Users/jerry/miniforge3/envs/i4g/lib/python3.11/site-packages/resources/gcp/compute/run.png" width="100.8px" height="100.8px" preserveAspectRatio="xMinYMin meet" x="512.4" y="-802.15"/>
<text xml:space="preserve" text-anchor="middle" x="562.8" y="-683.6" font-family="Sans-Serif" font-size="13.00" fill="#2d3436">Core API</text>
<text xml:space="preserve" text-anchor="middle" x="562.8" y="-670.1" font-family="Sans-Serif" font-size="13.00" fill="#2d3436">(FastAPI)</text>
</g>
<!-- 31fb58330dbf4050ab22161f3c9a42a1 -->
<g id="node8" class="node">
<title>31fb58330dbf4050ab22161f3c9a42a1</title>
<image xlink:href="/Users/jerry/miniforge3/envs/i4g/lib/python3.11/site-packages/resources/gcp/database/sql.png" width="100.8px" height="100.8px" preserveAspectRatio="xMinYMin meet" x="668.2" y="-601.15"/>
<text xml:space="preserve" text-anchor="middle" x="718.6" y="-482.6" font-family="Sans-Serif" font-size="13.00" fill="#2d3436">Cloud SQL</text>
<text xml:space="preserve" text-anchor="middle" x="718.6" y="-469.1" font-family="Sans-Serif" font-size="13.00" fill="#2d3436">(Cases)</text>
</g>
<!-- 3d7374c7cb564d43996a3fce7f7735f9&#45;&gt;31fb58330dbf4050ab22161f3c9a42a1 -->
<g id="edge7" class="edge">
<title>3d7374c7cb564d43996a3fce7f7735f9&#45;&gt;31fb58330dbf4050ab22161f3c9a42a1</title>
<path fill="none" stroke="#7b8894" d="M613.08,-672.95C658.74,-672.95 719,-672.95 719,-672.95 719,-672.95 719,-644.79 719,-644.79"/>
<polygon fill="#7b8894" stroke="#7b8894" points="722.5,-644.79 719,-634.79 715.5,-644.79 722.5,-644.79"/>
</g>
<!-- e45320fd6a994082927ccbd744370b5b -->
<g id="node9" class="node">
<title>e45320fd6a994082927ccbd744370b5b</title>
<image xlink:href="/Users/jerry/miniforge3/envs/i4g/lib/python3.11/site-packages/resources/gcp/database/sql.png" width="100.8px" height="100.8px" preserveAspectRatio="xMinYMin meet" x="668.2" y="-810.15"/>
<text xml:space="preserve" text-anchor="middle" x="718.6" y="-691.6" font-family="Sans-Serif" font-size="13.00" fill="#2d3436">PII Vault</text>
<text xml:space="preserve" text-anchor="middle" x="718.6" y="-678.1" font-family="Sans-Serif" font-size="13.00" fill="#2d3436">(Encrypted)</text>
</g>
<!-- 3d7374c7cb564d43996a3fce7f7735f9&#45;&gt;e45320fd6a994082927ccbd744370b5b -->
<g id="edge8" class="edge">
<title>3d7374c7cb564d43996a3fce7f7735f9&#45;&gt;e45320fd6a994082927ccbd744370b5b</title>
<path fill="none" stroke="#7b8894" d="M612.95,-755.75C612.95,-755.75 656.76,-755.75 656.76,-755.75"/>
<polygon fill="#7b8894" stroke="#7b8894" points="656.76,-759.25 666.76,-755.75 656.76,-752.25 656.76,-759.25"/>
</g>
<!-- bfeac8d379754d1086d5027f6a6e69c2 -->
<g id="node12" class="node">
<title>bfeac8d379754d1086d5027f6a6e69c2</title>
<image xlink:href="/Users/jerry/miniforge3/envs/i4g/lib/python3.11/site-packages/resources/gcp/ml/ai-platform.png" width="100.8px" height="100.8px" preserveAspectRatio="xMinYMin meet" x="668.2" y="-1021.15"/>
<text xml:space="preserve" text-anchor="middle" x="718.6" y="-902.6" font-family="Sans-Serif" font-size="13.00" fill="#2d3436">Vertex AI</text>
<text xml:space="preserve" text-anchor="middle" x="718.6" y="-889.1" font-family="Sans-Serif" font-size="13.00" fill="#2d3436">(Vector Search)</text>
</g>
<!-- 3d7374c7cb564d43996a3fce7f7735f9&#45;&gt;bfeac8d379754d1086d5027f6a6e69c2 -->
<g id="edge10" class="edge">
<title>3d7374c7cb564d43996a3fce7f7735f9&#45;&gt;bfeac8d379754d1086d5027f6a6e69c2</title>
<path fill="none" stroke="#7b8894" d="M580,-834.38C580,-881.02 580,-930.05 580,-930.05 580,-930.05 657.05,-930.05 657.05,-930.05"/>
<polygon fill="#7b8894" stroke="#7b8894" points="657.05,-933.55 667.05,-930.05 657.05,-926.55 657.05,-933.55"/>
</g>
<!-- 1ae8870f92fa490bac74d861434cd9be -->
<g id="node13" class="node">
<title>1ae8870f92fa490bac74d861434cd9be</title>
<image xlink:href="/Users/jerry/miniforge3/envs/i4g/lib/python3.11/site-packages/resources/gcp/analytics/pubsub.png" width="100.8px" height="100.8px" preserveAspectRatio="xMinYMin meet" x="171.8" y="-954.15"/>
<text xml:space="preserve" text-anchor="middle" x="222.2" y="-836.5" font-family="Sans-Serif" font-size="13.00" fill="#2d3436">Task Queue</text>
</g>
<!-- 3d7374c7cb564d43996a3fce7f7735f9&#45;&gt;1ae8870f92fa490bac74d861434cd9be -->
<g id="edge9" class="edge">
<title>3d7374c7cb564d43996a3fce7f7735f9&#45;&gt;1ae8870f92fa490bac74d861434cd9be</title>
<path fill="none" stroke="#7b8894" d="M546,-834.35C546,-838.35 546,-840.75 546,-840.75 546,-840.75 283.95,-840.75 283.95,-840.75"/>
<polygon fill="#7b8894" stroke="#7b8894" points="283.95,-837.25 273.95,-840.75 283.95,-844.25 283.95,-837.25"/>
</g>
<!-- bdf6b04df5374dee8deaa17defeffdb3 -->
<g id="node6" class="node">
<title>bdf6b04df5374dee8deaa17defeffdb3</title>
<image xlink:href="/Users/jerry/miniforge3/envs/i4g/lib/python3.11/site-packages/resources/gcp/compute/run.png" width="100.8px" height="100.8px" preserveAspectRatio="xMinYMin meet" x="327.6" y="-802.15"/>
<text xml:space="preserve" text-anchor="middle" x="378" y="-683.6" font-family="Sans-Serif" font-size="13.00" fill="#2d3436">Worker</text>
<text xml:space="preserve" text-anchor="middle" x="378" y="-670.1" font-family="Sans-Serif" font-size="13.00" fill="#2d3436">(Jobs)</text>
</g>
<!-- bdf6b04df5374dee8deaa17defeffdb3&#45;&gt;31fb58330dbf4050ab22161f3c9a42a1 -->
<g id="edge14" class="edge">
<title>bdf6b04df5374dee8deaa17defeffdb3&#45;&gt;31fb58330dbf4050ab22161f3c9a42a1</title>
<path fill="none" stroke="#7b8894" d="M395,-669.13C395,-647.88 395,-630.88 395,-630.88 395,-630.88 656.88,-630.88 656.88,-630.88"/>
<polygon fill="#7b8894" stroke="#7b8894" points="656.88,-634.38 666.88,-630.88 656.88,-627.38 656.88,-634.38"/>
</g>
<!-- bdf6b04df5374dee8deaa17defeffdb3&#45;&gt;e45320fd6a994082927ccbd744370b5b -->
<g id="edge15" class="edge">
<title>bdf6b04df5374dee8deaa17defeffdb3&#45;&gt;e45320fd6a994082927ccbd744370b5b</title>
<path fill="none" stroke="#7b8894" d="M403,-834.31C403,-836.13 403,-837.15 403,-837.15 403,-837.15 656.73,-837.15 656.73,-837.15"/>
<polygon fill="#7b8894" stroke="#7b8894" points="656.73,-840.65 666.73,-837.15 656.73,-833.65 656.73,-840.65"/>
</g>
<!-- 37785ab87fec46f8bc4a1bf6b98d8d54 -->
<g id="node10" class="node">
<title>37785ab87fec46f8bc4a1bf6b98d8d54</title>
<image xlink:href="/Users/jerry/miniforge3/envs/i4g/lib/python3.11/site-packages/resources/gcp/storage/storage.png" width="100.8px" height="100.8px" preserveAspectRatio="xMinYMin meet" x="668.2" y="-392.15"/>
<text xml:space="preserve" text-anchor="middle" x="718.6" y="-273.6" font-family="Sans-Serif" font-size="13.00" fill="#2d3436">GCS Buckets</text>
<text xml:space="preserve" text-anchor="middle" x="718.6" y="-260.1" font-family="Sans-Serif" font-size="13.00" fill="#2d3436">(Evidence/Reports)</text>
</g>
<!-- bdf6b04df5374dee8deaa17defeffdb3&#45;&gt;37785ab87fec46f8bc4a1bf6b98d8d54 -->
<g id="edge13" class="edge">
<title>bdf6b04df5374dee8deaa17defeffdb3&#45;&gt;37785ab87fec46f8bc4a1bf6b98d8d54</title>
<path fill="none" stroke="#7b8894" d="M428.31,-751.75C449.79,-751.75 470,-751.75 470,-751.75 470,-751.75 470,-345.25 470,-345.25 470,-345.25 656.78,-345.25 656.78,-345.25"/>
<polygon fill="#7b8894" stroke="#7b8894" points="656.78,-348.75 666.78,-345.25 656.78,-341.75 656.78,-348.75"/>
</g>
<!-- 73f96533e89c4733ad29e1d1c9d980ee -->
<g id="node11" class="node">
<title>73f96533e89c4733ad29e1d1c9d980ee</title>
<image xlink:href="/Users/jerry/miniforge3/envs/i4g/lib/python3.11/site-packages/resources/gcp/ml/vision-api.png" width="100.8px" height="100.8px" preserveAspectRatio="xMinYMin meet" x="668.2" y="-1230.15"/>
<text xml:space="preserve" text-anchor="middle" x="718.6" y="-1111.6" font-family="Sans-Serif" font-size="13.00" fill="#2d3436">Document AI</text>
<text xml:space="preserve" text-anchor="middle" x="718.6" y="-1098.1" font-family="Sans-Serif" font-size="13.00" fill="#2d3436">(OCR)</text>
</g>
<!-- bdf6b04df5374dee8deaa17defeffdb3&#45;&gt;73f96533e89c4733ad29e1d1c9d980ee -->
<g id="edge12" class="edge">
<title>bdf6b04df5374dee8deaa17defeffdb3&#45;&gt;73f96533e89c4733ad29e1d1c9d980ee</title>
<path fill="none" stroke="#7b8894" d="M378,-834.53C378,-958.94 378,-1179.75 378,-1179.75 378,-1179.75 656.83,-1179.75 656.83,-1179.75"/>
<polygon fill="#7b8894" stroke="#7b8894" points="656.83,-1183.25 666.83,-1179.75 656.83,-1176.25 656.83,-1183.25"/>
</g>
<!-- 4aaecd24667b406a9506b11816771325 -->
<g id="node15" class="node">
<title>4aaecd24667b406a9506b11816771325</title>
<image xlink:href="/Users/jerry/miniforge3/envs/i4g/lib/python3.11/site-packages/resources/azure/database/sql-databases.png" width="100.8px" height="100.8px" preserveAspectRatio="xMinYMin meet" x="512.4" y="-173.15"/>
<text xml:space="preserve" text-anchor="middle" x="562.8" y="-54.6" font-family="Sans-Serif" font-size="13.00" fill="#2d3436">Azure SQL</text>
<text xml:space="preserve" text-anchor="middle" x="562.8" y="-41.1" font-family="Sans-Serif" font-size="13.00" fill="#2d3436">(Historical)</text>
</g>
<!-- bdf6b04df5374dee8deaa17defeffdb3&#45;&gt;4aaecd24667b406a9506b11816771325 -->
<g id="edge17" class="edge">
<title>bdf6b04df5374dee8deaa17defeffdb3&#45;&gt;4aaecd24667b406a9506b11816771325</title>
<path fill="none" stroke="#7b8894" d="M361,-669.01C361,-646.51 361,-628.22 361,-628.22 361,-628.22 546,-628.22 546,-628.22 546,-628.22 546,-216.88 546,-216.88"/>
<polygon fill="#7b8894" stroke="#7b8894" points="549.5,-216.88 546,-206.88 542.5,-216.88 549.5,-216.88"/>
<text xml:space="preserve" text-anchor="middle" x="470.4" y="-222.9" font-family="Sans-Serif" font-size="13.00" fill="#2d3436">Sync</text>
</g>
<!-- b8cf173bfe224dbcb116c3bc11b93aa4&#45;&gt;1d4f309dba97462a8341e2f675a56827 -->
<g id="edge5" class="edge">
<title>b8cf173bfe224dbcb116c3bc11b93aa4&#45;&gt;1d4f309dba97462a8341e2f675a56827</title>
<path fill="none" stroke="#7b8894" d="M378,-460C378,-441.91 378,-428.05 378,-428.05 378,-428.05 283.87,-428.05 283.87,-428.05"/>
<polygon fill="#7b8894" stroke="#7b8894" points="283.87,-424.55 273.87,-428.05 283.87,-431.55 283.87,-424.55"/>
</g>
<!-- b8cf173bfe224dbcb116c3bc11b93aa4&#45;&gt;3d7374c7cb564d43996a3fce7f7735f9 -->
<g id="edge6" class="edge">
<title>b8cf173bfe224dbcb116c3bc11b93aa4&#45;&gt;3d7374c7cb564d43996a3fce7f7735f9</title>
<path fill="none" stroke="#7b8894" d="M428.19,-546.75C488.02,-546.75 580,-546.75 580,-546.75 580,-546.75 580,-657.45 580,-657.45"/>
<polygon fill="#7b8894" stroke="#7b8894" points="576.5,-657.45 580,-667.45 583.5,-657.45 576.5,-657.45"/>
</g>
<!-- 1ae8870f92fa490bac74d861434cd9be&#45;&gt;bdf6b04df5374dee8deaa17defeffdb3 -->
<g id="edge11" class="edge">
<title>1ae8870f92fa490bac74d861434cd9be&#45;&gt;bdf6b04df5374dee8deaa17defeffdb3</title>
<path fill="none" stroke="#7b8894" d="M272.4,-838.95C309.28,-838.95 353,-838.95 353,-838.95 353,-838.95 353,-838.48 353,-838.48"/>
<polygon fill="#7b8894" stroke="#7b8894" points="356.5,-845.78 353,-835.78 349.5,-845.78 356.5,-845.78"/>
</g>
<!-- 5e3127c7718e44679a03102c95f46f2b -->
<g id="node14" class="node">
<title>5e3127c7718e44679a03102c95f46f2b</title>
<image xlink:href="/Users/jerry/miniforge3/envs/i4g/lib/python3.11/site-packages/resources/gcp/devtools/scheduler.png" width="100.8px" height="100.8px" preserveAspectRatio="xMinYMin meet" x="171.8" y="-774.15"/>
<text xml:space="preserve" text-anchor="middle" x="222.2" y="-656.5" font-family="Sans-Serif" font-size="13.00" fill="#2d3436">Weekly Refresh</text>
</g>
<!-- 5e3127c7718e44679a03102c95f46f2b&#45;&gt;bdf6b04df5374dee8deaa17defeffdb3 -->
<g id="edge16" class="edge">
<title>5e3127c7718e44679a03102c95f46f2b&#45;&gt;bdf6b04df5374dee8deaa17defeffdb3</title>
<path fill="none" stroke="#7b8894" d="M272.35,-730.55C272.35,-730.55 316.16,-730.55 316.16,-730.55"/>
<polygon fill="#7b8894" stroke="#7b8894" points="316.16,-734.05 326.16,-730.55 316.16,-727.05 316.16,-734.05"/>
</g>
</g>
</svg>
