<?xml version="1.0" encoding="UTF-8"?><svg id="Layer_1" xmlns="http://www.w3.org/2000/svg" viewBox="0 0 305 242"><defs><style>.cls-1{fill:#00e000;}.cls-2{fill:#e0004f;}.cls-3{fill:#16b8e0;}</style></defs><path d="m135.521258341996145,58.83578830586157c-.104264297995542.134091584586713-.201880872296897.272294261467323-.323989060223539.394314979341289-.136453275896201.136628215997916-.289700801145955.248677348328783-.44154880561473.363000701923738l4.366154948736948,4.433681826300017-13.754723301037302,13.753983251601312c-.48430802438088.484281967012066-.484330206705636,1.269478969312331-.000049545662478,1.75378829958936l10.066590151203854,10.067186089523602c.484291720309557.484320390198263,1.269510564216034.484332011019433,1.75381661967549.000025955556339l13.532392665234511-13.58109103687093c.480185740460001-.48191376181785.482480903436226-1.260709247770137.005143944170413-1.74544489375694l-15.203787616483169-15.439445173207787Z"/><path class="cls-2" d="m155.305990316795942,115.141335526413968c-.029960944528284-.109763460317481-.058801853745535-.21987693166011-.100523169014195-.324180219842674-.035001103417017-.086732734271209-.080082524618774-.167725287577923-.122923875202105-.250117885021609-.039201235820656-.07651241206986-.077002427515254-.153794848411053-.122643866376166-.226317134696728-.059361871390138-.093382943912729-.126843998776167-.180815700248786-.196006179128744-.266778410245024-.039761253487086-.04991157346376-.078682480481802-.100243160184618-.121803839887434-.147564652004803-.085682701170299-.093592950535822-.177805605359026-.180815700248786-.2749686684474-.26285828665641-.033321050450468-.028630902597797-.066922109730513-.057051798565226-.101923213154805-.08414265261672-.112563548580511-.086942740883387-.230727273716184-.166955263295677-.355331201884837-.237447485578741-.023240732673003-.013300419293955-.04676147416103-.025620807700761-.070562224485911-.038291207139991-.138044351875578-.073222308343247-.281408871469466-.138044351875578-.431493602922274-.189355969487224-.012040379573591-.004130130200792-.024640776806336-.00728022950716-.036681156383565-.011340357501467-.161285084544943-.052921668368072-.32761032797498-.094432977020915-.499815756793396-.119563769272645-.141684466630977-.020720653228636-.283368933258316-.043401368231571-.430933585263119-.043401368231571-.14784466083438,0-.289529127465357.022680715002934-.43149360292955.043471370434418-.171925419974286.025130792255368-.338250663418876.066712103118334-.499535747963819.119563769276283-.01232038839953.004060127994308-.024920785628638.007280229510798-.036961165209505.011480361921713-.149524713797291.051241615397885-.29260922456524.115783650100639-.430373567611241.188795951831707-.024360767980397.013020410468016-.04872153594988.025690809903608-.072522286278399.03927123802714-.12376390168356.070142211254279-.241367609160079.149804722626868-.353651148921927.236327450278623-.035561121072533.027650871696096-.069722198008094.056561783116194-.103883274940017.08575270336587-.096323036606918.081482568759384-.187885923147405.168215303019679-.273008606654912.261108231490653-.043681377064786.048091516095155-.083442630544596.099263129293831-.124043910509499.150154733659292-.068322153867484.085122683511145-.134964254775696.171505406746292-.193766108513955.263978321967443-.045921447683213.073362312767131-.084562665855628.151554777796264-.124323919339076.229047220760549-.042281332927814.081762577585323-.087082745299995.161985106613429-.12180383989471.248087821018999-.042001324090961.104933308040927-.071122242134152.215676799260109-.101083186662436.326140281642438-.01876059143251.068602162697061-.044241394716664.134404237116541-.057961827260442.204896459399606-.036401147546712.186065865764249-.057961827256804.377451899246807-.057961827256804.574158100447676,0,1.647011922381353,1.335362097561301,2.982234015533322,2.982374019946292,2.982234015533322,1.647011922381353,0,2.982094011116715-1.33522209315197,2.982094011116715-2.982234015533322,0-.196566196787899-.021560679706454-.387952230270457-.057961827260442-.573878091621737-.014000441366079-.071262246558035-.039481244653871-.137694340843154-.05852184491232-.206996525605064Z"/><path class="cls-1" d="m130.660372798054595,58.829752872503377c.053531669782387.03621260014188.111261901896796.062803494933178.166892852841556.095167412935552.104614178191696.061229034061398.209928116772062.12105854733818.319790497884242.168379843664297.069976038928871.030264636832726.142751119416062.052394559144886.214476559307514.076886172766535.099016095078696.03393837888143.1987319505497.065690006544173.300197206994198.08886956943752.080822324958717.018281240169017.162344410302467.031051867274073.24421637584237.042597913692589.094117772361642.013382917444687.188935305104678.022829682700831.284102718040231.027203185134567.088169809045212.003936152188544.175989737897908.004810852675291.264159546943119.000962170543062.088169809045212-.003761212101381.17598973789427-.013732797648117.263809666746965-.025278844070272.092718251580663-.012420746908901.185436503157689-.025191374013957.277105114146252-.046359125790332.079772684370255-.018281240161741.157446087581775-.044872134960315.235469370978535-.06971362877448.095517293135345-.03052704698348.191384466459567-.058954812793672.284102718036593-.099278505225811.068926398347685-.029914756643848.133304354152642-.070238449072349.200481351523194-.105488878674805.095517293131707-.050732628227706.1931338674367-.097004283969.284102718036593-.158845608366391v.000087470049039c.153247525246115-.104089357901103.300547087183077-.220686932760145.436300602697884-.356440448271314.125606989869993-.125432049775554.230920928453997-.26267255611674.329237263140385-.4031494542578.08257172593585-.117472275349428.149048962914094-.242117094679998.212377278141503-.367724084553629.019243410701165-.038049471171689.042335503552749-.074611951509723.05982951328042-.11327371301013.051782268801617-.114673233791109.090968850603531-.233107679672685.127706271039642-.352154415893892.017144129531516-.055368540801283.035687779851287-.110212261304696.049333107439452-.166193092449248.027290655183606-.110037321210257.044784664911276-.221649103295931.059479633087903-.333523295521445.008747004860197-.07006350897791.016444369142846-.140214487997582.020293051293265-.210715347217047.005598083109362-.101990076735092.00629784350167-.203980153466546.001399520777341-.305970230198-.003848682139505-.083971246716828-.012945567210409-.16750514317755-.023791853236617-.250951569596509-.011895926618308-.090706440456415-.025191374013957-.181150470769353-.045484425303584-.270632330542867-.02169257206333-.09647946367113-.052482029193925-.190772176116297-.084321126905706-.285064888572379-.025541254206473-.075924002234387-.048283466858265-.152547764853807-.079772684373893-.226634896065661-.047933586662111-.11091202170428-.108112980135047-.217100660767755-.169691894396237-.322677009502513-.031839097708144-.054231430160144-.057380351918255-.110999491738767-.093068131769542-.163568990985368-.105313938576728-.15657138709139-.224972965141205-.30675746063207-.363525522214331-.445310017705197-.357577558905177-.357665028954216-.786880557709082-.59199728931344-1.238925769168418-.729937556043296-.251913740132295-.076798702717497-.509075683177798-.12534457971924-.77008630837372-.134004114541312-.03323861849276-.001137110630225-.066127356785728-.009534235305182-.099715855467366-.009534235305182-.763088704479742,0-1.526177408959484.291187791983248-2.108727933013142.873475905889791-1.164401287715009,1.164663697858487-1.164401287715009,3.052967108254961,0,4.217543336071685.137502916488302.137590386533702.286901759594912.256112302467955.4422485660034.361251300950244Z"/><path class="cls-3" d="m188.992398846119613,69.425874566744824c-.536016458161612-.793178401210753-1.443255802834756-1.314762301346491-2.47260333541999-1.314849771399167-.82361797815247.000087470052677-1.569212672900903.333785705675837-2.109077813205658.873475905886153-.539515260115877.539690200210316-.873300965788076,1.28528489495875-.873300965788076,2.108815403062181,0,.269320279810927.045834305496101.52621981271659.114060943451477.773497640268033.013295447384735.049245637394051.029389936345979.097004283965362.045134545103792.145200280767313.078723043792706.236606481616036.177389258675248.464903308609792.308594331658242.672032383827172.19453338821404.306932400741061.444347847176687.57187917812189.734398528518796.789242249029485.105313938587642.078985453936184.218325241447019.147561972087715.333435825483321.212814628379419.038486821405968.021517631972529.07662376261942.043210204046773.11616022461385.063065905087569.099016095078696.050470218073315.201181111908227.09481753273576.305795290103561.13426652468479.079072923981585.0290400561571.160595009336248.05291937943548.242466974872514.075311711894756.079772684377531.022392332455638.158845608366391.046621535930171.241417334291327.062278674642585.175289977512875.032188977904298.354078756965464.054231430160144.538815499730845.05431890021282.000699760385032,0,.001399520770065.000174940094439.002099281166011.000174940094439,1.029347532585234-.000087470045401,1.936586877258378-.521583900128462,2.47260333541999-1.314849771402805.321539898861374-.476012004783115.509425563373952-1.0497280539239.509425563373952-1.667354067485576s-.187885664512578-1.191429532751499-.509425563373952-1.667441537549166Z"/><path d="m183.212727911090042,73.432002795221706l-4.278335019887891,4.031232132434525-10.186316421644733-10.186396958619298c-.484295358553936-.484299187577562-1.269496858338243-.484300739601167-1.753794131411269-.00000346653178l-25.590042838986847,25.590042838994123c-.484295919308352.484295919315628-.484295919308352,1.269494745589327,0,1.753790664894041l10.497010034454433,10.497010034461709v6.220799623039056c.179488539841259-.019330880746566.354428637154342-.054493840310897.539165379919723-.054493840310897.184386862565589,0,.358977079686156.035162959564332.538465619531053.054406370269135v-6.405448895762675l26.546110126670101-26.546197596719139,4.429483263960719-4.173545901598118c-.278854515112471-.229608877722058-.532517656214623-.486246000480605-.74174601260529-.781195004550682Z"/><path d="m69.510555862401816,143.347311438787074h-4.613063809938467v-24.252291258293553h4.613063809938467v24.252291258293553Z"/><path d="m88.242701026261784,143.347311438787074h-4.613063809945743v-10.518911872950412c0-1.047880569480185-.314876164604357-3.564329917520809-3.355265797385073-3.564329917520809-2.061628221388673,0-3.494357436498831,1.537687936652219-3.494357436498831,3.564329917520809v10.518911872950412h-4.613063809942105v-17.997434113109193h4.403146366868896v1.747605379718152c1.153692613956082-1.36275673408818,2.726366791113833-2.201573183436267,4.648050050454913-2.201573183436267,4.228215164304856,0,7.024554436447943,3.179481271890836,7.024554436447943,7.932490043876896v10.518911872950412Z"/><path d="m99.708801361844962,143.312325198274266c-5.276949056729791.558926525245624-8.072435005928128-2.620554746641574-8.072435005928128-7.548494721191673v-6.3248296262027h-2.166586942919821v-4.089123525202012h2.166586942919821v-4.578077569432935h4.613063809942105v4.578077569432935h3.249453752909176v4.089123525202012h-3.249453752909176v6.359815866722784c0,2.516449348036986,1.152839291018608,3.459371195978747,3.459371195986023,3.320279556872265v4.193228923799325Z"/><path d="m105.615502747787104,136.148679122716203c.594766088699544,2.201573183436267,2.34151814548386,3.564329917520809,4.508105088407319,3.564329917520809,1.537687936648581,0,3.040389632784354-.663885246787686,3.809233601103188-2.096614461897843h4.927939974546462c-1.048733892417658,3.669288639059232-4.229068487245968,6.149898423649574-8.702187335140479,6.149898423649574-5.06703161366022,0-9.225274296943098-4.193228923799325-9.225274296943098-9.400205499499862,0-5.206976575707813,4.158242683282879-9.470177980529115,9.225274296943098-9.470177980529115,5.311935297238961,0,9.715081664111494,4.123256442770071,9.051196417316532,11.252769600756437h-13.594287746233022Zm9.016210176811001-3.774247360594018c-.558926525256538-2.096614461897843-2.30653190497469-3.425238278410689-4.508105088403681-3.425238278410689-2.096614461905119,0-3.774247360594018,1.328623816512845-4.438132607381704,3.425238278410689h8.946237695785385Z"/><path d="m126.271891139800573,143.347311438787074h-4.613063809942105v-25.999896638011705h4.613063809942105v25.999896638011705Z"/><path d="m133.680440898941015,143.347311438787074h-4.613063809942105v-25.999896638011705h4.613063809942105v25.999896638011705Z"/><path d="m140.914912778454891,123.393207825823993h-4.613063809938467v-4.298187645330472h4.613063809938467v4.298187645330472Zm0,19.954103612963081h-4.613063809938467v-17.997434113109193h4.613063809938467v17.997434113109193Z"/><path d="m168.491750208322628,136.148679122716203c.594766088699544,2.201573183436267,2.341518145480222,3.564329917520809,4.508105088400043,3.564329917520809,1.537687936648581,0,3.040389632784354-.663885246787686,3.809233601106826-2.096614461897843h4.927939974553738c-1.048733892421296,3.669288639059232-4.229068487253244,6.149898423649574-8.702187335144117,6.149898423649574-5.067031613656582,0-9.225274296943098-4.193228923799325-9.225274296943098-9.400205499499862,0-5.206976575707813,4.158242683286517-9.470177980529115,9.225274296943098-9.470177980529115,5.311935297238961,0,9.715081664107856,4.123256442770071,9.051196417323808,11.252769600756437h-13.594287746240298Zm9.016210176807363-3.774247360594018c-.5589265252529-2.096614461897843-2.306531904967414-3.425238278410689-4.508105088407319-3.425238278410689-2.096614461894205,0-3.77424736059038,1.328623816512845-4.438132607381704,3.425238278410689h8.946237695789023Z"/><path d="m200.50586692262732,143.347311438787074h-4.613063809942105v-10.518911872950412c0-1.047880569480185-.314876164607995-3.564329917520809-3.355265797385073-3.564329917520809-2.061628221388673,0-3.494357436502469,1.537687936652219-3.494357436502469,3.564329917520809v10.518911872950412h-4.613063809934829v-17.997434113109193h4.403146366865258v1.747605379718152c1.153692613956082-1.36275673408818,2.726366791117471-2.201573183436267,4.648050050454913-2.201573183436267,4.228215164304856,0,7.024554436444305,3.179481271890836,7.024554436444305,7.932490043876896v10.518911872950412Z"/><path d="m211.971113935273024,143.766293001988743c-5.416894018777384,0-9.295246777965076-4.193228923799325-9.295246777965076-9.400205499499862,0-5.206976575707813,3.878352759187692-9.470177980529115,9.295246777965076-9.470177980529115,4.333173885846918,0,7.618467202210013,2.44562354408481,8.667201094631309,6.499760828766739h-4.9279399745501c-.628899006278516-1.222811772036948-2.061628221385035-2.271545664454607-3.73926112008121-2.271545664454607-2.550582265615958,0-4.613063809934829,2.376504385996668-4.613063809934829,5.276949056729791,0,2.830472189707507,2.062481544318871,5.171990335187729,4.613063809934829,5.171990335187729,1.712619139205344,0,3.180334594828309-1.048733892417658,3.774247360594018-2.306531904971052h4.927086651608988c-1.047880569480185,4.08912352520565-4.33317388584328,6.499760828770377-8.701334012203006,6.499760828770377Z"/><path d="m226.441764340186637,136.148679122716203c.59476608870682,2.201573183436267,2.34151814548386,3.564329917520809,4.508105088407319,3.564329917520809,1.537687936644943,0,3.040389632780716-.663885246787686,3.809233601103188-2.096614461897843h4.9279399745501c-1.048733892421296,3.669288639059232-4.229068487253244,6.149898423649574-8.702187335144117,6.149898423649574-5.067031613656582,0-9.225274296935822-4.193228923799325-9.225274296935822-9.400205499499862,0-5.206976575707813,4.158242683279241-9.470177980529115,9.225274296935822-9.470177980529115,5.311935297238961,0,9.715081664107856,4.123256442770071,9.051196417323808,11.252769600756437h-13.594287746240298Zm9.016210176807363-3.774247360594018c-.558926525249262-2.096614461897843-2.306531904963776-3.425238278410689-4.508105088400043-3.425238278410689-2.096614461897843,0-3.774247360594018,1.328623816512845-4.438132607381704,3.425238278410689h8.946237695781747Z"/><path d="m151.878181930289429,124.935109871670647c-.036634323703765-.000302763008222-.071452069376392-.005146971099748-.108086393083795-.005146971099748-4.686165804414486,0-8.566982013293455,4.056115989264072-8.566982013293455,9.406543828492431,0,5.315307330554788,3.880816208878969,9.371423319815221,8.566982013293455,9.371423319815221,2.098147630480526,0,3.916845006577205-.768563890331279,5.31530733055115-2.098147630484164v.874379560867965c0,3.217462463078846-1.468400578327419,5.350427839235635-4.720983550083474,5.350427839235635-1.258585815281549,0-3.077283191370952-.559203271790466-3.671606971842266-1.992786104448896h-5.07037205882807c.699079780490138,3.811634862042411,4.440927769686823,6.293837365436048,8.741979030670336,6.293837365436048,5.77066289134018,0,9.337211100151762-3.74154522619574,9.337211100151762-9.721417354565347v-17.099903188434837h-4.406110024010559v1.923756139116449c-1.161701653414639-1.190009994461434-2.626166312671558-1.957514214263938-4.310436914169259-2.209413035125181l-1.106901549355825-.093553768805577Zm1.189253086951794,4.622131428681314c.303065768846864.044354780355206.568891687973519.108540537588851.832598266060813.194676612751209.284294462486287.095673109852214.514091583918344.196341809289152.740255549280846.318506682149746l.11111402314782.059795693650813c.193768323730183.109297445113043.379967572323949.234792711031332.557386693748413.37315540470081l.159858867089497.129733948007924c.154409132977889.131550526031788.297918797747116.267339734156849.432042809330596.413271502966381.063882994236337.070846543370862.117774809274124.137454404655728.17075833529816.204062265940593.132307433552342.164854456677858.238274485596776.303974057864252.33152549139777.451722404715838.066607861281227.104150474006019.122921780370234.211782722588396.178327410438214.321080167697801l.05025865897187.098246595392993c.057222208102758.107480867074628.112930601175321.216778312184033.158950578064832.33046582087627.064791283250088.163037878643081.110811260135961.324410560759134.154409132977889.485783242875186l.029065248560073.099911791927298c.027248670528934.085379167641804.052075237006648.170758335290884.069332728340669.260376185022324.06055260116409.314268000063748.090526138748828.608856404745893.090526138748828.90268790191476,0,2.592408237516793-2.109047098696465,4.701455336209619-4.701606717717368,4.701455336209619-2.593165145030071,0-4.702212243722897-2.109047098692827-4.702212243722897-4.701455336209619,0-.292923208151478.02967077456924-.588419901851012.090223375736969-.90268790191476.018771306360577-.095521728344465.044506161859317-.182566092524212.071754832388251-.269761838208069l.026643144512491-.089617849727802c.044506161859317-.16394616766047.091131664757995-.327892335324577.154409132977889-.484118046340882.046928265903261-.117774809266848.105058763030684-.230705410449445.164097549168218-.343333248620183l.039964716768736-.077658711001277c.056616682097228-.110962641640072.114444416209153-.22298495380528.181052277494018-.327892335324577.097489687883353-.151987028930307.200731872875622-.288684526072757.308212739946612-.422657156155765.082957063601498-.103393566492741.136546115638339-.170909716794995.195584901779512-.234792711031332.133215722562454-.145326242804003.27672538733168-.280964069421316.426895838230848-.409941109908686l.165005838185607-.134880919104035c.178327410441852-.138362693669478.365434948049369-.263857959587767.560717086820659-.37497198273195l.079626670536527-.043446491337818c.263706578087294-.140027890207421.486540150384826-.237366196579387.712098589738162-.315024907580664.33122272838591-.106875341061823.588268520346901-.16833623124694.844406023294141-.20587884397537.511669479867123-.075993514463335.89829783832829-.069029965328809,1.316716312405333-.006812167626776Z"/><path d="m83.359219227222638,154.664365886243104v3.35295605939973h-2.664452561391954v11.34701344224959h-3.782571046973317v-11.34701344224959h-1.776534940487181v-3.35295605939973h1.776534940487181c.057375291504286-3.839946338473965,2.37827580256635-6.676524774364225,6.590461837113253-6.18953449528999v3.553069880974363c-1.805222586230229-.142738530073984-2.807890790139936.601740862079168-2.807890790139936,2.636464614315628h2.664452561391954Z"/><path d="m98.554550749417103,162.000006814198059c0,4.412999554799171-3.352256360725733,7.707880624020618-7.450391510948975,7.707880624020618-4.097435451552883,0-7.421004166524654-3.294881069221447-7.421004166524654-7.707880624020618,0-4.412999554810085,3.323568714971771-7.765255915528542,7.421004166524654-7.765255915528542,4.098135150223243,0,7.450391510948975,3.352256360718457,7.450391510948975,7.765255915528542Zm-3.810558994049643.028687645743048c0-2.550401677068294-1.633796410413197-4.326936617551837-3.639832516899332-4.326936617551837-2.005336407812138,0-3.639132818225335,1.776534940483543-3.639132818225335,4.326936617551837,0,2.493026385567646,1.633796410413197,4.212186034550541,3.639132818225335,4.212186034550541,2.006036106486135,0,3.639832516899332-1.719159648982895,3.639832516899332-4.212186034550541Z"/><path d="m108.564415377572004,157.98863429989251c-1.518346128730627-.172125874501944-2.779203144389612,0-3.639132818221697.916605266655097-.801854683653801.831242028081761-.945292912401783,2.034723752240097-.945292912401783,3.209517830644472v7.249577990700345h-3.782571046973317v-14.757344793146331h3.610445172467735v1.461670535907615c1.203481724158337-1.490358181657939,2.980016664649156-2.034723752236459,4.756551605129061-1.747847294733219v3.667820463972021Z"/><path d="m139.834042461774516,176.146403048905995h-4.623295820216299v-2.84190181422673c-1.743452627160877,2.083999637132365-4.547413062558917,3.296272960691567-7.806670043904887,3.296272960691567-7.162592003289319,0-12.772363673055224-5.987334659090266-12.772363673055224-13.681105965992174,0-7.6928459074079,5.609771669765905-13.719047344806313,12.772363673055224-13.719047344806313,5.835569143775501,0,10.308024848156492,3.297198360174662,11.93765333882402,8.75427911513907h-5.381197997303389c-1.023491828895203-2.31164791010815-3.52484663314317-4.205940653097059-6.556455341520632-4.205940653097059-4.358631567894918,0-7.769654064555652,4.168924673751462-7.769654064555652,9.170708882764302,0,4.964768229681795,3.524846633150446,9.133692903433257,7.996376938048343,9.133692903433257,3.75249490612623,0,6.670279478006705-2.577237561908987,7.617888549240888-5.874435922080011h-7.124650624460628v-4.66123719904499h11.710005065848236v14.628715037219081Z"/><path d="m162.539644192114793,166.406573483700413c0,5.836494543254958-4.433588926069206,10.194200711670419-9.853653701684379,10.194200711670419-5.419139376142994,0-9.814786923383508-4.357706168415461-9.814786923383508-10.194200711670419s4.395647547240515-10.270083469324163,9.814786923383508-10.270083469324163c5.420064775615174,0,9.853653701684379,4.433588926069206,9.853653701684379,10.270083469324163Zm-5.040650987328263.037941378828691c0-3.373081117832044-2.159882394789747-5.722670406765246-4.813002714356116-5.722670406765246-2.652194920090551,0-4.813002714363392,2.349589288933203-4.813002714363392,5.722670406765246,0,3.297198360174662,2.160807794272841,5.570904891450482,4.813002714363392,5.570904891450482,2.653120319566369,0,4.813002714356116-2.27370653127582,4.813002714356116-5.570904891450482Z"/><path d="m184.486418345888524,166.406573483700413c0,5.836494543254958-4.433588926076482,10.194200711670419-9.853653701695293,10.194200711670419-5.419139376135718,0-9.814786923376232-4.357706168415461-9.814786923376232-10.194200711670419s4.395647547240515-10.270083469324163,9.814786923376232-10.270083469324163c5.420064775618812,0,9.853653701695293,4.433588926069206,9.853653701695293,10.270083469324163Zm-5.040650987335539.037941378828691c0-3.373081117832044-2.159882394797023-5.722670406765246-4.813002714359754-5.722670406765246-2.652194920083275,0-4.813002714359754,2.349589288933203-4.813002714359754,5.722670406765246,0,3.297198360174662,2.160807794276479,5.570904891450482,4.813002714359754,5.570904891450482,2.653120319562731,0,4.813002714359754-2.27370653127582,4.813002714359754-5.570904891450482Z"/><path d="m206.812606287938252,176.146403048905995h-4.775061335527425v-2.083999637136003c-1.553745733017422,1.591687111846113-3.60072939080419,2.500429404768511-5.988260058569722,2.500429404768511-5.07859236616423,0-9.284533019257651-4.395647547244153-9.284533019257651-10.15625933283809,0-5.798553164422628,4.205940653093421-10.194200711666781,9.284533019257651-10.194200711666781,2.273706531279458,0,4.244807431408844.833784934751748,5.760611785597575,2.273706531279458v-10.535673121125001h5.002709608499572v28.195996866717906Zm-10.00541921700642-15.310734456652426c-2.76601905656571,0-5.002709608499572,2.425472046590585-5.002709608499572,5.608846270275535,0,3.107491466031206,2.236690551933862,5.495022133796738,5.002709608499572,5.495022133796738,2.766944456056081,0,5.002709608506848-2.463413425422914,5.002709608506848-5.495022133796738,0-3.107491466027568-2.235765152450767-5.608846270275535-5.002709608506848-5.608846270275535Z"/></svg>